<svg width="714" height="827" viewBox="0 0 714 827" fill="none" xmlns="http://www.w3.org/2000/svg">
<path d="M0 42C0 18.8041 18.804 0 42 0H467.549C478.423 0 488.874 4.218 496.702 11.7665L594.346 105.923L702.174 217.286C709.759 225.12 714 235.597 714 246.501V784.461C714 807.657 695.196 826.462 672 826.462H42C18.804 826.462 0 807.657 0 784.462V42Z" fill="#F3E6A0"/>
<path d="M473.55 211.192L473.55 47.7792C473.55 45.1065 476.781 43.768 478.671 45.6579L676.757 243.744C678.647 245.634 677.309 248.865 674.636 248.866L518.5 248.867C518.5 248.867 495.51 248.865 483.848 236.037C472.185 223.208 473.55 211.192 473.55 211.192Z" fill="#ABA35A"/>
</svg>
