<svg width="448" height="547" viewBox="0 0 448 547" fill="none" xmlns="http://www.w3.org/2000/svg">
<path d="M101 295.928C94.3726 295.928 89 290.555 89 283.928V12C89 5.37259 94.3726 0 101 0H284.949C291.577 0 296.949 5.37258 296.949 12V56.9063C296.949 63.5337 291.577 68.9062 284.949 68.9062H187.953C181.326 68.9062 175.953 74.2788 175.953 80.9063V113.918C175.953 120.545 181.326 125.918 187.953 125.918H273.465C280.092 125.918 285.465 131.291 285.465 137.918V179.133C285.465 185.76 280.092 191.133 273.465 191.133H187.953C181.326 191.133 175.953 196.505 175.953 203.133V283.928C175.953 290.555 170.581 295.928 163.953 295.928H101Z" fill="black"/>
<rect y="406.212" width="448" height="29" rx="14.5" fill="black"/>
<rect y="517.212" width="448" height="29" rx="14.5" fill="black"/>
</svg>
