<svg width="604" height="565" viewBox="0 0 604 565" fill="none" xmlns="http://www.w3.org/2000/svg">
<path d="M551.624 565C574.622 565 584.779 550.001 584.779 516.55V489.737C584.779 476.397 587.017 468.743 592.61 465.05C598.104 461.423 604 456.956 604 450.373V441.494C604 434.911 598.099 430.438 592.62 426.788C587.02 423.058 584.779 415.345 584.779 401.997V375.051C584.779 341.867 574.874 327 551.624 327C548.518 327 546 329.518 546 332.624V348.164C546 350.111 547.578 351.689 549.525 351.689C560.605 351.689 564.886 359.388 564.886 379.033V411.687C564.886 429.89 571.356 440.629 583.645 443.561C584.725 443.819 585.534 444.757 585.534 445.867C585.534 446.978 584.725 447.916 583.645 448.174C571.356 451.106 564.886 461.851 564.886 480.18V512.967C564.886 532.612 560.605 540.311 549.525 540.311C547.578 540.311 546 541.889 546 543.836V559.376C546 562.482 548.518 565 551.624 565Z" fill="black"/>
<path d="M53.2793 241C29.8842 241 19.5528 225.811 19.5528 191.94V164.789C19.5528 151.148 17.2311 143.379 11.4189 139.682C5.86393 136.149 0 131.661 0 125.077V115.788C0 109.205 5.86885 104.711 11.4095 101.155C17.2286 97.4202 19.5528 89.5904 19.5528 75.9426V48.657C19.5528 15.0541 29.6281 0 53.2793 0C56.4388 0 59 2.56124 59 5.72069V21.4145C59 23.395 57.3944 25.0006 55.4139 25.0006C44.1433 25.0006 39.7887 32.7964 39.7887 52.6893V85.7546C39.7887 104.191 33.2038 115.066 20.6981 118.032C19.6039 118.292 18.7844 119.241 18.7844 120.366C18.7844 121.49 19.6039 122.439 20.6981 122.699C33.2038 125.665 39.7887 136.546 39.7887 155.111V188.311C39.7887 208.204 44.1433 215.999 55.4139 215.999C57.3944 215.999 59 217.605 59 219.586V235.279C59 238.439 56.4388 241 53.2793 241Z" fill="black"/>
</svg>
